<svg width="122" height="60" viewBox="0 0 122 60" fill="none" xmlns="http://www.w3.org/2000/svg">
<path d="M14.7916 45.81C17.3049 46.07 19.1682 46.2 20.3816 46.2C21.6382 46.2 23.5232 46.0267 26.0366 45.68C26.8166 45.94 27.2716 46.265 27.4016 46.655C27.5316 47.045 27.5749 47.4567 27.5316 47.89C27.4882 48.28 27.5099 48.67 27.5966 49.06C27.6832 49.45 28.0949 49.775 28.8316 50.035C29.2216 50.165 29.3299 50.555 29.1566 51.205C29.0266 51.8117 28.6799 52.4833 28.1166 53.22C26.6866 55.0833 24.9966 56.3833 23.0466 57.12C19.9266 57.9 17.4782 58.355 15.7016 58.485C12.7549 58.7017 9.54823 58.5933 6.08156 58.16C2.26823 57.4667 0.426563 55.885 0.556563 53.415C0.556563 44.315 2.5499 35.1717 6.53656 25.985C7.83656 22.995 9.3099 19.8533 10.9566 16.56C11.3032 15.8667 11.4982 15.0867 11.5416 14.22C11.6282 13.3533 11.6932 12.5083 11.7366 11.685C11.7799 10.8617 11.9099 10.125 12.1266 9.475C12.3432 8.825 12.7982 8.37 13.4916 8.11C22.5049 4.51333 29.6332 3.12666 34.8766 3.95C36.6966 3.99333 37.8882 4.62166 38.4516 5.835C39.0582 7.005 39.1232 8.32666 38.6466 9.8C38.2132 11.2733 37.3249 12.66 35.9816 13.96C34.6816 15.26 33.0349 16.0617 31.0416 16.365C28.4849 17.1017 26.9249 17.6 26.3616 17.86C25.2782 18.38 24.4982 19.0733 24.0216 19.94C23.4149 20.8933 22.8516 21.8033 22.3316 22.67C21.8116 23.5367 21.4432 24.4683 21.2266 25.465L20.9666 26.895C21.7899 27.285 22.7866 27.415 23.9566 27.285C25.1699 27.1117 26.2749 26.96 27.2716 26.83C28.3116 26.6567 29.1349 26.635 29.7416 26.765C30.3916 26.895 30.5216 27.545 30.1316 28.715C29.7849 29.8417 29.1132 31.12 28.1166 32.55C27.1632 33.98 25.7982 35.02 24.0216 35.67C22.8949 35.8867 22.1149 36.06 21.6816 36.19C21.2916 36.2767 20.9882 36.3417 20.7716 36.385C20.4682 36.4283 19.6016 36.4933 18.1716 36.58C16.1349 40.0467 14.8999 42.7333 14.4666 44.64C14.2932 45.42 14.4016 45.81 14.7916 45.81ZM46.9935 2.975C47.9468 1.805 49.0951 1.155 50.4385 1.025C51.7818 0.894998 53.0818 1.11166 54.3385 1.675C55.5951 2.195 56.6568 3.01833 57.5235 4.145C58.4335 5.22833 58.9318 6.44166 59.0185 7.785L58.4335 9.67C58.9101 10.2333 59.3218 10.6883 59.6685 11.035C60.0585 11.3817 60.2751 11.9233 60.3185 12.66C60.5785 13.2667 59.4951 15.6717 57.0685 19.875C56.0718 21.6083 55.0101 23.4283 53.8835 25.335C52.8001 27.1983 51.9118 28.8667 51.2185 30.34C51.7385 30.21 52.2585 30.1017 52.7785 30.015C53.2985 29.9283 53.8185 29.82 54.3385 29.69C57.5451 28.8667 59.7118 28.455 60.8385 28.455C61.9651 28.4117 62.8968 28.52 63.6335 28.78C65.6268 29.56 66.6668 30.7733 66.7535 32.42C66.1468 33.85 63.8718 35.8433 59.9285 38.4C59.0185 38.9633 58.2818 39.44 57.7185 39.83L52.0635 43.86C51.7601 44.3367 51.5435 44.7917 51.4135 45.225V45.29C51.5001 45.5067 52.0418 45.81 53.0385 46.2C54.0785 46.59 54.9668 46.9367 55.7035 47.24C57.4368 48.02 58.9751 49.0817 60.3185 50.425C60.7518 50.9017 61.0335 51.6167 61.1635 52.57C61.2935 53.48 61.1418 54.325 60.7085 55.105C60.3185 55.885 59.6035 56.4483 58.5635 56.795C57.5235 57.1417 56.0718 56.99 54.2085 56.34C51.4785 55.1267 48.2501 52.4183 44.5235 48.215C44.0901 49.7317 43.6568 51.2267 43.2235 52.7C42.8335 54.13 42.4001 55.6033 41.9235 57.12C41.2735 58.5933 39.7568 59.2867 37.3735 59.2C36.4201 59.2 35.5535 59.005 34.7735 58.615C34.0368 58.225 33.6035 57.705 33.4735 57.055C33.1268 56.1017 32.9535 55.3867 32.9535 54.91C32.9535 54.4767 33.0618 53.9567 33.2785 53.35C34.2751 50.8367 34.9035 48.8433 35.1635 47.37C35.4235 45.8533 35.5968 44.965 35.6835 44.705C34.4701 43.925 33.7551 42.69 33.5385 41C33.2785 39.3533 33.6685 37.88 34.7085 36.58C36.0951 36.06 37.0918 35.67 37.6985 35.41C37.9585 33.7633 38.3918 31.9867 38.9985 30.08C40.0818 26.6567 40.9051 23.6883 41.4685 21.175C42.0751 18.6617 42.9201 15.8233 44.0035 12.66C45.1301 9.45333 46.1268 6.225 46.9935 2.975ZM77.9066 2.975C78.8599 1.805 80.0082 1.155 81.3516 1.025C82.6949 0.894998 83.9949 1.11166 85.2516 1.675C86.5082 2.195 87.5699 3.01833 88.4366 4.145C89.3466 5.22833 89.8449 6.44166 89.9316 7.785L89.3466 9.67C89.8232 10.2333 90.2349 10.6883 90.5816 11.035C90.9716 11.3817 91.1882 11.9233 91.2316 12.66C91.4916 13.2667 90.4082 15.6717 87.9816 19.875C86.9849 21.6083 85.9232 23.4283 84.7966 25.335C83.7132 27.1983 82.8249 28.8667 82.1316 30.34C82.6516 30.21 83.1716 30.1017 83.6916 30.015C84.2116 29.9283 84.7316 29.82 85.2516 29.69C88.4582 28.8667 90.6249 28.455 91.7516 28.455C92.8782 28.4117 93.8099 28.52 94.5466 28.78C96.5399 29.56 97.5799 30.7733 97.6666 32.42C97.0599 33.85 94.7849 35.8433 90.8416 38.4C89.9316 38.9633 89.1949 39.44 88.6316 39.83L82.9766 43.86C82.6732 44.3367 82.4566 44.7917 82.3266 45.225V45.29C82.4132 45.5067 82.9549 45.81 83.9516 46.2C84.9916 46.59 85.8799 46.9367 86.6166 47.24C88.3499 48.02 89.8882 49.0817 91.2316 50.425C91.6649 50.9017 91.9466 51.6167 92.0766 52.57C92.2066 53.48 92.0549 54.325 91.6216 55.105C91.2316 55.885 90.5166 56.4483 89.4766 56.795C88.4366 57.1417 86.9849 56.99 85.1216 56.34C82.3916 55.1267 79.1632 52.4183 75.4366 48.215C75.0032 49.7317 74.5699 51.2267 74.1366 52.7C73.7466 54.13 73.3132 55.6033 72.8366 57.12C72.1866 58.5933 70.6699 59.2867 68.2866 59.2C67.3332 59.2 66.4666 59.005 65.6866 58.615C64.9499 58.225 64.5166 57.705 64.3866 57.055C64.0399 56.1017 63.8666 55.3867 63.8666 54.91C63.8666 54.4767 63.9749 53.9567 64.1916 53.35C65.1882 50.8367 65.8166 48.8433 66.0766 47.37C66.3366 45.8533 66.5099 44.965 66.5966 44.705C65.3832 43.925 64.6682 42.69 64.4516 41C64.1916 39.3533 64.5816 37.88 65.6216 36.58C67.0082 36.06 68.0049 35.67 68.6116 35.41C68.8716 33.7633 69.3049 31.9867 69.9116 30.08C70.9949 26.6567 71.8182 23.6883 72.3816 21.175C72.9882 18.6617 73.8332 15.8233 74.9166 12.66C76.0432 9.45333 77.0399 6.225 77.9066 2.975ZM104.595 25.855C105.158 24.425 106.501 23.45 108.625 22.93C110.618 22.41 112.481 22.475 114.215 23.125C115.991 23.8183 116.793 24.945 116.62 26.505C116.143 28.0217 115.536 29.885 114.8 32.095C114.106 34.2617 113.435 36.4933 112.785 38.79C111.051 44.6833 110.055 48.8433 109.795 51.27C109.145 55.17 108.061 57.2717 106.545 57.575C106.111 57.6617 105.7 57.7267 105.31 57.77C104.356 57.8133 103.75 58.0733 103.49 58.55C103.23 59.0267 102.796 59.3733 102.19 59.59C101.583 59.85 100.911 59.9583 100.175 59.915C99.4813 59.915 98.7663 59.7417 98.0296 59.395C97.293 59.0917 96.6646 58.6367 96.1446 58.03C94.9313 56.5567 94.693 54.585 95.4296 52.115C96.123 47.3917 97.878 41.39 100.695 34.11C102.038 30.5133 103.338 27.7617 104.595 25.855ZM116.88 16.105C114.756 16.5383 113.023 16.4083 111.68 15.715C110.38 15.0217 109.621 14.1983 109.405 13.245C109.188 12.2483 109.491 11.23 110.315 10.19C111.268 8.89 112.698 8.045 114.605 7.655C115.471 7.56833 116.1 7.525 116.49 7.525C116.88 7.525 117.356 7.61166 117.92 7.785C119.35 7.915 120.281 8.54333 120.715 9.67C121.321 10.6233 121.365 11.7067 120.845 12.92C120.368 14.1333 119.046 15.195 116.88 16.105Z" fill="black"/>
</svg>
